<?xml version="1.0" encoding="UTF-8" standalone="no"?>
<svg
   xmlns:dc="http://purl.org/dc/elements/1.1/"
   xmlns:cc="http://creativecommons.org/ns#"
   xmlns:rdf="http://www.w3.org/1999/02/22-rdf-syntax-ns#"
   xmlns:svg="http://www.w3.org/2000/svg"
   xmlns="http://www.w3.org/2000/svg"
   xmlns:xlink="http://www.w3.org/1999/xlink"
   xmlns:sodipodi="http://sodipodi.sourceforge.net/DTD/sodipodi-0.dtd"
   xmlns:inkscape="http://www.inkscape.org/namespaces/inkscape"
   inkscape:export-ydpi="427.89999"
   inkscape:export-xdpi="427.89999"
   inkscape:export-filename="C:\Users\brobert\GitHub\TrivialTriviaJS\themes\_finished\Yakuza Kiwami 2\images\logo.png"
   width="77.928009mm"
   height="28.278715mm"
   viewBox="0 0 77.928001 28.278717"
   version="1.1"
   id="svg8"
   inkscape:version="1.0.1 (3bc2e813f5, 2020-09-07)"
   sodipodi:docname="logo.svg">
  <defs
     id="defs2">
    <linearGradient
       inkscape:collect="always"
       id="linearGradient928">
      <stop
         style="stop-color:#ce0f0a;stop-opacity:1;"
         offset="0"
         id="stop924" />
      <stop
         style="stop-color:#000000;stop-opacity:1"
         offset="1"
         id="stop926" />
    </linearGradient>
    <linearGradient
       inkscape:collect="always"
       id="linearGradient912">
      <stop
         style="stop-color:#ce0f0a;stop-opacity:1;"
         offset="0"
         id="stop908" />
      <stop
         style="stop-color:#000000;stop-opacity:1"
         offset="1"
         id="stop910" />
    </linearGradient>
    <linearGradient
       id="linearGradient894"
       inkscape:collect="always">
      <stop
         id="stop890"
         offset="0"
         style="stop-color:#000000;stop-opacity:1;" />
      <stop
         id="stop892"
         offset="1"
         style="stop-color:#000000;stop-opacity:0;" />
    </linearGradient>
    <linearGradient
       id="linearGradient876"
       inkscape:collect="always">
      <stop
         id="stop872"
         offset="0"
         style="stop-color:#ffffff;stop-opacity:1" />
      <stop
         id="stop874"
         offset="1"
         style="stop-color:#ffd452;stop-opacity:0.97647059" />
    </linearGradient>
    <linearGradient
       inkscape:collect="always"
       id="linearGradient1169">
      <stop
         style="stop-color:#7d7d7d;stop-opacity:1"
         offset="0"
         id="stop1165" />
      <stop
         style="stop-color:#e7e7e7;stop-opacity:1"
         offset="1"
         id="stop1167" />
    </linearGradient>
    <marker
       inkscape:stockid="Arrow1Lstart"
       orient="auto"
       refY="0"
       refX="0"
       id="Arrow1Lstart"
       style="overflow:visible"
       inkscape:isstock="true">
      <path
         id="path883"
         d="M 0,0 5,-5 -12.5,0 5,5 Z"
         style="fill-rule:evenodd;stroke:#000000;stroke-width:1pt"
         transform="matrix(0.8,0,0,0.8,10,0)" />
    </marker>
    <linearGradient
       inkscape:collect="always"
       xlink:href="#linearGradient1169"
       id="linearGradient1171"
       x1="50.534504"
       y1="145.94571"
       x2="172.77846"
       y2="122.96053"
       gradientUnits="userSpaceOnUse" />
    <linearGradient
       gradientTransform="matrix(0.7898847,0,0,0.78988469,38.583421,25.321739)"
       gradientUnits="userSpaceOnUse"
       y2="145.5002"
       x2="122.00798"
       y1="139.06445"
       x1="122.00798"
       id="linearGradient878"
       xlink:href="#linearGradient876"
       inkscape:collect="always" />
    <radialGradient
       gradientUnits="userSpaceOnUse"
       gradientTransform="matrix(0.93770277,-1.7724548,2.1365501,1.4311594,-312.39525,114.36294)"
       r="21.994175"
       fy="146.4633"
       fx="100.15035"
       cy="146.4633"
       cx="100.15035"
       id="radialGradient896"
       xlink:href="#linearGradient894"
       inkscape:collect="always" />
    <linearGradient
       inkscape:collect="always"
       xlink:href="#linearGradient928"
       id="linearGradient914"
       x1="119.18959"
       y1="142.92168"
       x2="137.849"
       y2="157.87691"
       gradientUnits="userSpaceOnUse" />
    <linearGradient
       inkscape:collect="always"
       xlink:href="#linearGradient912"
       id="linearGradient930"
       gradientUnits="userSpaceOnUse"
       x1="119.18959"
       y1="142.92168"
       x2="137.849"
       y2="157.87691" />
    <linearGradient
       inkscape:collect="always"
       xlink:href="#linearGradient928"
       id="linearGradient940"
       gradientUnits="userSpaceOnUse"
       x1="119.18959"
       y1="142.92168"
       x2="137.849"
       y2="157.87691" />
    <linearGradient
       inkscape:collect="always"
       xlink:href="#linearGradient912"
       id="linearGradient942"
       gradientUnits="userSpaceOnUse"
       x1="119.18959"
       y1="142.92168"
       x2="137.849"
       y2="157.87691" />
    <linearGradient
       inkscape:collect="always"
       xlink:href="#linearGradient1169"
       id="linearGradient972"
       gradientUnits="userSpaceOnUse"
       x1="119.18959"
       y1="142.92168"
       x2="137.849"
       y2="157.87691" />
    <linearGradient
       inkscape:collect="always"
       xlink:href="#linearGradient928"
       id="linearGradient974"
       gradientUnits="userSpaceOnUse"
       x1="119.18959"
       y1="142.92168"
       x2="137.849"
       y2="157.87691" />
    <linearGradient
       inkscape:collect="always"
       xlink:href="#linearGradient928"
       id="linearGradient976"
       gradientUnits="userSpaceOnUse"
       x1="119.18959"
       y1="142.92168"
       x2="137.849"
       y2="157.87691" />
    <linearGradient
       inkscape:collect="always"
       xlink:href="#linearGradient912"
       id="linearGradient978"
       gradientUnits="userSpaceOnUse"
       x1="119.18959"
       y1="142.92168"
       x2="137.849"
       y2="157.87691" />
  </defs>
  <sodipodi:namedview
     id="base"
     pagecolor="#ffffff"
     bordercolor="#666666"
     borderopacity="1.0"
     inkscape:pageopacity="0.0"
     inkscape:pageshadow="2"
     inkscape:zoom="1.979899"
     inkscape:cx="142.39554"
     inkscape:cy="63.901316"
     inkscape:document-units="mm"
     inkscape:current-layer="text835"
     inkscape:document-rotation="0"
     showgrid="false"
     fit-margin-top="0.5"
     fit-margin-left="9.5"
     fit-margin-right="9.5"
     fit-margin-bottom="0.5"
     inkscape:window-width="1920"
     inkscape:window-height="1017"
     inkscape:window-x="1912"
     inkscape:window-y="-8"
     inkscape:window-maximized="1" />
  <metadata
     id="metadata5">
    <rdf:RDF>
      <cc:Work
         rdf:about="">
        <dc:format>image/svg+xml</dc:format>
        <dc:type
           rdf:resource="http://purl.org/dc/dcmitype/StillImage" />
        <dc:title></dc:title>
      </cc:Work>
    </rdf:RDF>
  </metadata>
  <g
     inkscape:label="Layer 1"
     inkscape:groupmode="layer"
     id="layer1"
     transform="translate(-67.519243,-121.85538)">
    <g
       aria-label="2"
       transform="matrix(1.1933137,0,0,1.0605037,-16.725476,-18.916891)"
       id="g946"
       style="font-style:normal;font-variant:normal;font-weight:normal;font-stretch:normal;font-size:18.3444px;line-height:1.25;font-family:'BN Machine';-inkscape-font-specification:'BN Machine';letter-spacing:0px;word-spacing:0px;fill:url(#linearGradient976);fill-opacity:1;fill-rule:nonzero;stroke:url(#linearGradient978);stroke-width:2.66678;stroke-linecap:square;stroke-linejoin:miter;stroke-miterlimit:4;stroke-dasharray:none;stroke-opacity:1;paint-order:stroke fill markers">
      <path
         d="m 126.70539,145.65469 -0.019,0.40307 -0.14264,0.34933 -0.17118,0.17019 -0.31382,0.49265 -0.15216,0.10749 -0.35185,0.3135 -0.11412,0.1254 -0.18068,0.0985 -0.11411,0.19706 -0.33285,0.20601 -0.27578,0.21498 -0.34234,0.34933 -0.25676,0.22393 -0.11412,0.17915 -0.23774,0.17018 -0.019,0.26872 -0.25677,0.0806 -0.13313,0.19706 -0.23774,0.31351 -0.1902,0.3135 -0.11411,0.21497 -0.33285,0.40308 -0.1997,0.3135 -0.40891,0.80615 -0.17117,0.15227 -0.11412,0.19706 -0.35185,0.33142 -0.11412,0.0537 0.019,0.0717 -0.16167,0.25976 -0.22823,0.25976 0.019,0.0717 h 0.83685 l 0.31382,0.0537 0.19019,-0.0537 0.2948,0.0179 0.40892,-0.0179 0.44695,0.0537 0.54205,0.0717 0.31382,0.0985 0.17117,-0.0627 0.42793,0.0627 0.16167,-0.0179 0.40892,0.0179 0.42793,0.0537 0.33283,-0.0537 0.11412,0.0717 h 0.11412 l 0.18069,0.0896 -0.019,0.1254 -0.019,0.0358 h -0.16167 l -0.28529,0.0627 -0.45646,-0.0627 -0.52304,-0.0179 h -0.46596 l -0.58009,0.0806 -0.72274,-0.0806 h -1.20772 l -0.55156,0.0806 h -0.17118 l -0.42793,0.0717 -0.25676,0.0179 -0.20922,0.14332 -0.25675,-0.0358 -0.15216,-0.0896 -0.038,-0.0896 v -0.24184 l -0.057,-0.22393 0.17117,-0.21497 0.27578,-0.36725 0.22823,-0.40308 0.27578,-0.3135 0.20922,-0.22393 0.27578,-0.47473 0.25675,-0.36725 0.17119,-0.40307 0.54204,-0.84198 0.33284,-0.52848 0.31382,-0.34933 0.21871,-0.20602 0.11412,-0.17914 0.17118,-0.1881 0.25676,-0.21498 0.66567,-0.73449 0.32333,-0.27767 0.21872,-0.25976 0.1902,-0.14332 0.16166,-0.20602 0.15216,-0.21497 0.0951,-0.24184 0.14265,-0.21498 0.0761,-0.83302 -0.019,-0.42099 -0.16166,-0.28663 -0.30431,-0.17019 -0.18069,-0.14331 -0.22822,-0.0179 -0.29481,-0.0537 -0.38989,0.0896 -0.25676,0.14332 -0.32333,0.15227 -0.21872,0.19706 -0.27578,0.1881 -0.42794,0.14332 -0.28528,0.10748 -0.16168,0.0358 -0.17117,0.0985 -0.62763,0.0358 -0.17117,-0.0179 -0.29481,-0.0985 -0.17117,-0.16123 -0.12362,-0.14332 -0.038,-0.22393 0.038,-0.20602 0.10457,-0.10748 0.17118,-0.25976 0.1997,-0.17915 0.11412,-0.16123 0.24725,-0.1881 0.29479,-0.16123 0.31382,-0.15227 0.19019,-0.0179 0.12363,-0.14331 0.50401,-0.0896 0.54205,-0.15227 0.35186,-0.0717 0.44695,0.0538 h 0.38989 l 0.42794,0.0537 0.37088,0.13436 0.35186,0.17914 0.21872,0.0717 0.0761,0.15227 0.35186,0.34934 0.1902,0.26871 0.1997,0.25976 0.038,0.29559 v 0.27768 l -0.038,0.26871 z"
         style="font-style:normal;font-variant:normal;font-weight:normal;font-stretch:semi-expanded;font-size:18.3444px;font-family:Chiller;-inkscape-font-specification:'Chiller Semi-Expanded';fill:url(#linearGradient974);fill-opacity:1;fill-rule:nonzero;stroke:url(#linearGradient972);stroke-width:2.66678;stroke-linecap:square;stroke-linejoin:miter;stroke-miterlimit:4;stroke-dasharray:none;stroke-opacity:1;paint-order:stroke fill markers"
         id="path944"
         sodipodi:nodetypes="cccccccccccccccccccccccccccccccccccccccccccccccccccccccccccccccccccccccccccccccccccccccccccccccccccccccccccccccccccccccccccccccccccccccccccccc" />
    </g>
    <g
       aria-label="2"
       transform="matrix(1.1933137,0,0,1.0605037,-16.725476,-18.916891)"
       id="text889"
       style="font-style:normal;font-variant:normal;font-weight:normal;font-stretch:normal;font-size:18.3444px;line-height:1.25;font-family:'BN Machine';-inkscape-font-specification:'BN Machine';letter-spacing:0px;word-spacing:0px;fill:url(#linearGradient914);fill-opacity:1;fill-rule:nonzero;stroke:url(#linearGradient930);stroke-width:2;stroke-linecap:square;stroke-linejoin:miter;stroke-miterlimit:4;stroke-dasharray:none;stroke-opacity:1;paint-order:stroke fill markers">
      <path
         d="m 126.70539,145.65469 -0.019,0.40307 -0.14264,0.34933 -0.17118,0.17019 -0.31382,0.49265 -0.15216,0.10749 -0.35185,0.3135 -0.11412,0.1254 -0.18068,0.0985 -0.11411,0.19706 -0.33285,0.20601 -0.27578,0.21498 -0.34234,0.34933 -0.25676,0.22393 -0.11412,0.17915 -0.23774,0.17018 -0.019,0.26872 -0.25677,0.0806 -0.13313,0.19706 -0.23774,0.31351 -0.1902,0.3135 -0.11411,0.21497 -0.33285,0.40308 -0.1997,0.3135 -0.40891,0.80615 -0.17117,0.15227 -0.11412,0.19706 -0.35185,0.33142 -0.11412,0.0537 0.019,0.0717 -0.16167,0.25976 -0.22823,0.25976 0.019,0.0717 h 0.83685 l 0.31382,0.0537 0.19019,-0.0537 0.2948,0.0179 0.40892,-0.0179 0.44695,0.0537 0.54205,0.0717 0.31382,0.0985 0.17117,-0.0627 0.42793,0.0627 0.16167,-0.0179 0.40892,0.0179 0.42793,0.0537 0.33283,-0.0537 0.11412,0.0717 h 0.11412 l 0.18069,0.0896 -0.019,0.1254 -0.019,0.0358 h -0.16167 l -0.28529,0.0627 -0.45646,-0.0627 -0.52304,-0.0179 h -0.46596 l -0.58009,0.0806 -0.72274,-0.0806 h -1.20772 l -0.55156,0.0806 h -0.17118 l -0.42793,0.0717 -0.25676,0.0179 -0.20922,0.14332 -0.25675,-0.0358 -0.15216,-0.0896 -0.038,-0.0896 v -0.24184 l -0.057,-0.22393 0.17117,-0.21497 0.27578,-0.36725 0.22823,-0.40308 0.27578,-0.3135 0.20922,-0.22393 0.27578,-0.47473 0.25675,-0.36725 0.17119,-0.40307 0.54204,-0.84198 0.33284,-0.52848 0.31382,-0.34933 0.21871,-0.20602 0.11412,-0.17914 0.17118,-0.1881 0.25676,-0.21498 0.66567,-0.73449 0.32333,-0.27767 0.21872,-0.25976 0.1902,-0.14332 0.16166,-0.20602 0.15216,-0.21497 0.0951,-0.24184 0.14265,-0.21498 0.0761,-0.83302 -0.019,-0.42099 -0.16166,-0.28663 -0.30431,-0.17019 -0.18069,-0.14331 -0.22822,-0.0179 -0.29481,-0.0537 -0.38989,0.0896 -0.25676,0.14332 -0.32333,0.15227 -0.21872,0.19706 -0.27578,0.1881 -0.42794,0.14332 -0.28528,0.10748 -0.16168,0.0358 -0.17117,0.0985 -0.62763,0.0358 -0.17117,-0.0179 -0.29481,-0.0985 -0.17117,-0.16123 -0.12362,-0.14332 -0.038,-0.22393 0.038,-0.20602 0.10457,-0.10748 0.17118,-0.25976 0.1997,-0.17915 0.11412,-0.16123 0.24725,-0.1881 0.29479,-0.16123 0.31382,-0.15227 0.19019,-0.0179 0.12363,-0.14331 0.50401,-0.0896 0.54205,-0.15227 0.35186,-0.0717 0.44695,0.0538 h 0.38989 l 0.42794,0.0537 0.37088,0.13436 0.35186,0.17914 0.21872,0.0717 0.0761,0.15227 0.35186,0.34934 0.1902,0.26871 0.1997,0.25976 0.038,0.29559 v 0.27768 l -0.038,0.26871 z"
         style="font-style:normal;font-variant:normal;font-weight:normal;font-stretch:semi-expanded;font-size:18.3444px;font-family:Chiller;-inkscape-font-specification:'Chiller Semi-Expanded';fill:url(#linearGradient940);fill-opacity:1;fill-rule:nonzero;stroke:url(#linearGradient942);stroke-width:2.06075;stroke-linecap:square;stroke-linejoin:miter;stroke-miterlimit:4;stroke-dasharray:none;stroke-opacity:1;paint-order:stroke fill markers"
         id="path893"
         sodipodi:nodetypes="cccccccccccccccccccccccccccccccccccccccccccccccccccccccccccccccccccccccccccccccccccccccccccccccccccccccccccccccccccccccccccccccccccccccccccccc" />
    </g>
    <g
       aria-label="Trivial Trivia!"
       id="text835"
       style="font-style:normal;font-variant:normal;font-weight:500;font-stretch:normal;font-size:19.7556px;line-height:1.25;font-family:Roboto;-inkscape-font-specification:'Roboto Medium';letter-spacing:0px;word-spacing:0px;fill:#000000;fill-opacity:1;stroke:#000000;stroke-width:0.765;stroke-miterlimit:4;stroke-dasharray:none;stroke-opacity:1">
      <text
         xml:space="preserve"
         style="font-style:normal;font-variant:normal;font-weight:normal;font-stretch:normal;font-size:18.3444px;line-height:1.25;font-family:'BN Machine';-inkscape-font-specification:'BN Machine';letter-spacing:0px;word-spacing:0px;fill:#ffffff;fill-opacity:0.274194;stroke:url(#radialGradient896);stroke-width:1.5;stroke-linecap:square;stroke-linejoin:miter;stroke-miterlimit:4;stroke-dasharray:none;stroke-opacity:0.491936;paint-order:markers fill stroke"
         x="73.745796"
         y="153.98396"
         id="text888"
         transform="scale(1.06077,0.94271143)"><tspan
           sodipodi:role="line"
           id="tspan886"
           x="73.745796"
           y="153.98396"
           style="font-style:normal;font-variant:normal;font-weight:normal;font-stretch:semi-expanded;font-size:18.3444px;font-family:Chiller;-inkscape-font-specification:'Chiller Semi-Expanded';fill:#ffffff;fill-opacity:0.274194;stroke:url(#radialGradient896);stroke-width:1.5;stroke-linecap:square;stroke-linejoin:miter;stroke-miterlimit:4;stroke-dasharray:none;stroke-opacity:0.491936;paint-order:markers fill stroke"><tspan
             style="font-size:21.1667px;fill:#ffffff;fill-opacity:0.274194;stroke:url(#radialGradient896);stroke-width:1.5;stroke-miterlimit:4;stroke-dasharray:none;stroke-opacity:0.491936;paint-order:markers fill stroke"
             id="tspan882">Y</tspan><tspan
             style="font-size:14.1111px;fill:#ffffff;fill-opacity:0.274194;stroke:url(#radialGradient896);stroke-width:1.5;stroke-miterlimit:4;stroke-dasharray:none;stroke-opacity:0.491936;paint-order:markers fill stroke"
             id="tspan884">AKUZA</tspan></tspan></text>
      <g
         style="fill:#0d071b;fill-opacity:1;stroke:#1f0651;stroke-width:4;stroke-miterlimit:4;stroke-dasharray:none;stroke-opacity:1"
         transform="matrix(0.35984704,0,0,0.35984704,65.75191,87.746153)"
         id="g926">
        <text
           xml:space="preserve"
           style="font-style:normal;font-variant:normal;font-weight:normal;font-stretch:normal;font-size:14.2975px;line-height:1.25;font-family:Valken;-inkscape-font-specification:Valken;letter-spacing:0px;word-spacing:0px;fill:#0d071b;fill-opacity:1;stroke:#1f0651;stroke-width:4;stroke-linecap:round;stroke-linejoin:round;stroke-miterlimit:4;stroke-dasharray:none;stroke-opacity:1;paint-order:stroke markers fill"
           x="71.557121"
           y="109.6871"
           id="text920"><tspan
             sodipodi:role="line"
             id="tspan918"
             x="71.557121"
             y="109.6871"
             style="font-style:normal;font-variant:normal;font-weight:normal;font-stretch:normal;font-size:14.2975px;font-family:Valken;-inkscape-font-specification:Valken;fill:#0d071b;fill-opacity:1;stroke:#1f0651;stroke-width:4;stroke-linecap:round;stroke-linejoin:round;stroke-miterlimit:4;stroke-dasharray:none;stroke-opacity:1;paint-order:stroke markers fill">trivial</tspan></text>
        <text
           xml:space="preserve"
           style="font-style:normal;font-variant:normal;font-weight:normal;font-stretch:normal;font-size:25.4px;line-height:1.25;font-family:Valken;-inkscape-font-specification:Valken;letter-spacing:0px;word-spacing:0px;fill:#0d071b;fill-opacity:1;stroke:#1f0651;stroke-width:4;stroke-linecap:round;stroke-linejoin:round;stroke-miterlimit:4;stroke-dasharray:none;stroke-opacity:1;paint-order:stroke markers fill"
           x="91.281258"
           y="128.13394"
           id="text924"><tspan
             sodipodi:role="line"
             id="tspan922"
             x="91.281258"
             y="128.13394"
             style="font-style:normal;font-variant:normal;font-weight:normal;font-stretch:normal;font-size:25.4px;font-family:Valken;-inkscape-font-specification:Valken;fill:#0d071b;fill-opacity:1;stroke:#1f0651;stroke-width:4;stroke-linecap:round;stroke-linejoin:round;stroke-miterlimit:4;stroke-dasharray:none;stroke-opacity:1;paint-order:stroke markers fill">trivia</tspan></text>
      </g>
      <g
         id="g869"
         transform="matrix(0.35984704,0,0,0.35984704,65.96932,87.582723)"
         style="fill:#420daf;fill-opacity:1;stroke:#1f0651;stroke-width:1.5;stroke-linecap:round;stroke-linejoin:round;stroke-miterlimit:4;stroke-dasharray:none;stroke-opacity:1;paint-order:stroke fill markers">
        <text
           id="text835-0"
           y="109.6871"
           x="71.557121"
           style="font-style:normal;font-variant:normal;font-weight:normal;font-stretch:normal;font-size:14.2975px;line-height:1.25;font-family:Valken;-inkscape-font-specification:Valken;letter-spacing:0px;word-spacing:0px;fill:#420daf;fill-opacity:1;stroke:#1f0651;stroke-width:1.5;stroke-linecap:round;stroke-linejoin:round;stroke-miterlimit:4;stroke-dasharray:none;stroke-opacity:1;paint-order:stroke fill markers"
           xml:space="preserve"><tspan
             style="font-style:normal;font-variant:normal;font-weight:normal;font-stretch:normal;font-size:14.2975px;font-family:Valken;-inkscape-font-specification:Valken;fill:#420daf;fill-opacity:1;stroke:#1f0651;stroke-width:1.5;stroke-linecap:round;stroke-linejoin:round;stroke-miterlimit:4;stroke-dasharray:none;stroke-opacity:1;paint-order:stroke fill markers"
             y="109.6871"
             x="71.557121"
             id="tspan833"
             sodipodi:role="line">trivial</tspan></text>
        <text
           id="text841"
           y="128.13394"
           x="91.281258"
           style="font-style:normal;font-variant:normal;font-weight:normal;font-stretch:normal;font-size:25.4px;line-height:1.25;font-family:Valken;-inkscape-font-specification:Valken;letter-spacing:0px;word-spacing:0px;fill:#420daf;fill-opacity:1;stroke:#1f0651;stroke-width:1.5;stroke-linecap:round;stroke-linejoin:round;stroke-miterlimit:4;stroke-dasharray:none;stroke-opacity:1;paint-order:stroke fill markers"
           xml:space="preserve"><tspan
             style="font-style:normal;font-variant:normal;font-weight:normal;font-stretch:normal;font-size:25.4px;font-family:Valken;-inkscape-font-specification:Valken;fill:#420daf;fill-opacity:1;stroke:#1f0651;stroke-width:1.5;stroke-linecap:round;stroke-linejoin:round;stroke-miterlimit:4;stroke-dasharray:none;stroke-opacity:1;paint-order:stroke fill markers"
             y="128.13394"
             x="91.281258"
             id="tspan839"
             sodipodi:role="line">trivia</tspan></text>
      </g>
      <rect
         style="fill:#1f0651;fill-opacity:1;stroke:none;stroke-width:1.43939;stroke-linecap:round;stroke-linejoin:round;stroke-miterlimit:4;stroke-dasharray:none;stroke-opacity:1;paint-order:stroke fill markers"
         id="rect928"
         width="4.568367"
         height="5.0732918"
         x="101.0155"
         y="124.95013" />
      <g
         id="g889"
         transform="matrix(0.35984704,0,0,0.35984704,65.75191,87.746153)"
         style="fill:#763cec;fill-opacity:1;stroke-width:0.7;stroke-miterlimit:4;stroke-dasharray:none">
        <text
           id="text883"
           y="109.6871"
           x="71.557121"
           style="font-style:normal;font-variant:normal;font-weight:normal;font-stretch:normal;font-size:14.2975px;line-height:1.25;font-family:Valken;-inkscape-font-specification:Valken;letter-spacing:0px;word-spacing:0px;fill:#763cec;fill-opacity:1;stroke:#ffffff;stroke-width:0.7;stroke-linecap:round;stroke-linejoin:round;stroke-miterlimit:4;stroke-dasharray:none;stroke-opacity:1;paint-order:stroke markers fill"
           xml:space="preserve"><tspan
             style="font-style:normal;font-variant:normal;font-weight:normal;font-stretch:normal;font-size:14.2975px;font-family:Valken;-inkscape-font-specification:Valken;fill:#763cec;fill-opacity:1;stroke:#ffffff;stroke-width:0.7;stroke-linecap:round;stroke-linejoin:round;stroke-miterlimit:4;stroke-dasharray:none;stroke-opacity:1;paint-order:stroke markers fill"
             y="109.6871"
             x="71.557121"
             id="tspan881"
             sodipodi:role="line">trivial</tspan></text>
        <text
           id="text887"
           y="128.13394"
           x="91.281258"
           style="font-style:normal;font-variant:normal;font-weight:normal;font-stretch:normal;font-size:25.4px;line-height:1.25;font-family:Valken;-inkscape-font-specification:Valken;letter-spacing:0px;word-spacing:0px;fill:#763cec;fill-opacity:1;stroke:#ffffff;stroke-width:0.7;stroke-linecap:round;stroke-linejoin:round;stroke-miterlimit:4;stroke-dasharray:none;stroke-opacity:1;paint-order:stroke markers fill"
           xml:space="preserve"><tspan
             style="font-style:normal;font-variant:normal;font-weight:normal;font-stretch:normal;font-size:25.4px;font-family:Valken;-inkscape-font-specification:Valken;fill:#763cec;fill-opacity:1;stroke:#ffffff;stroke-width:0.7;stroke-linecap:round;stroke-linejoin:round;stroke-miterlimit:4;stroke-dasharray:none;stroke-opacity:1;paint-order:stroke markers fill"
             y="128.13394"
             x="91.281258"
             id="tspan885"
             sodipodi:role="line">trivia</tspan></text>
      </g>
      <text
         transform="scale(1.06077,0.94271143)"
         id="text865"
         y="153.98396"
         x="73.745796"
         style="font-style:normal;font-variant:normal;font-weight:normal;font-stretch:normal;font-size:18.3444px;line-height:1.25;font-family:'BN Machine';-inkscape-font-specification:'BN Machine';letter-spacing:0px;word-spacing:0px;fill:#ffffff;fill-opacity:1;stroke:#f2f2f2;stroke-width:1;stroke-linecap:square;stroke-linejoin:miter;stroke-miterlimit:4;stroke-dasharray:none;stroke-opacity:1;paint-order:stroke fill markers"
         xml:space="preserve"><tspan
           style="font-style:normal;font-variant:normal;font-weight:normal;font-stretch:semi-expanded;font-size:18.3444px;font-family:Chiller;-inkscape-font-specification:'Chiller Semi-Expanded';fill:#ffffff;fill-opacity:1;stroke:#f2f2f2;stroke-width:1;stroke-linecap:square;stroke-linejoin:miter;stroke-miterlimit:4;stroke-dasharray:none;stroke-opacity:1;paint-order:stroke fill markers"
           y="153.98396"
           x="73.745796"
           id="tspan863"
           sodipodi:role="line"><tspan
             id="tspan866"
             style="font-size:21.1667px;stroke:#f2f2f2;stroke-opacity:1">Y</tspan><tspan
             id="tspan864"
             style="font-size:14.1111px;stroke:#f2f2f2;stroke-opacity:1">AKUZA</tspan></tspan></text>
      <text
         id="text869"
         y="152.45775"
         x="99.696144"
         style="font-style:normal;font-variant:normal;font-weight:normal;font-stretch:normal;font-size:19.7556px;line-height:1.25;font-family:Roboto;-inkscape-font-specification:Roboto;letter-spacing:0px;word-spacing:0px;fill:#000000;fill-opacity:1;stroke:none;stroke-width:0.202406"
         xml:space="preserve"><tspan
           style="stroke-width:0.202406"
           y="152.45775"
           x="99.696144"
           id="tspan867"
           sodipodi:role="line" /></text>
      <rect
         y="144.58417"
         x="118.55399"
         height="4.3529606"
         width="14.830426"
         id="rect880"
         style="opacity:0.999;fill:#000000;fill-opacity:1;stroke:#7d7d7d;stroke-width:0.419573;stroke-linecap:square;stroke-linejoin:miter;stroke-miterlimit:4;stroke-dasharray:none;stroke-opacity:1;paint-order:stroke fill markers" />
      <text
         transform="scale(0.94429696,1.0589889)"
         id="text870"
         y="140.38716"
         x="125.82008"
         style="font-style:normal;font-variant:normal;font-weight:normal;font-stretch:normal;font-size:4.93889px;line-height:1.25;font-family:Autumn;-inkscape-font-specification:Autumn;letter-spacing:0px;word-spacing:0px;fill:url(#linearGradient878);fill-opacity:1;stroke:#838383;stroke-width:0.150868;stroke-linecap:round;stroke-linejoin:round;stroke-miterlimit:4;stroke-dasharray:none;stroke-opacity:0.322581;paint-order:markers fill stroke"
         xml:space="preserve"><tspan
           style="font-style:normal;font-variant:normal;font-weight:normal;font-stretch:normal;font-size:4.93889px;font-family:Autumn;-inkscape-font-specification:Autumn;fill:url(#linearGradient878);fill-opacity:1;stroke:#838383;stroke-width:0.150868;stroke-linecap:round;stroke-linejoin:round;stroke-miterlimit:4;stroke-dasharray:none;stroke-opacity:0.322581;paint-order:markers fill stroke"
           y="140.38716"
           x="125.82008"
           id="tspan868"
           sodipodi:role="line">KIWAMI</tspan></text>
    </g>
  </g>
</svg>
